<svg width="25" height="25" viewBox="0 0 25 25" fill="none" xmlns="http://www.w3.org/2000/svg">
<path fill-rule="evenodd" clip-rule="evenodd" d="M12.375 0C5.54063 0 0 5.54063 0 12.375C0 19.2094 5.54063 24.75 12.375 24.75C19.2094 24.75 24.75 19.2094 24.75 12.375C24.75 5.54063 19.2094 0 12.375 0ZM16.5454 9.79537C16.7503 9.5832 16.8637 9.29902 16.8611 9.00405C16.8586 8.70908 16.7403 8.42691 16.5317 8.21833C16.3231 8.00974 16.0409 7.89143 15.746 7.88887C15.451 7.8863 15.1668 7.9997 14.9546 8.20463L12.375 10.7843L9.79537 8.20463C9.6916 8.09718 9.56746 8.01147 9.4302 7.95251C9.29295 7.89355 9.14533 7.86252 8.99595 7.86122C8.84657 7.85992 8.69843 7.88838 8.56018 7.94495C8.42192 8.00152 8.29631 8.08505 8.19068 8.19068C8.08505 8.29631 8.00152 8.42192 7.94495 8.56018C7.88838 8.69843 7.85992 8.84657 7.86122 8.99595C7.86252 9.14533 7.89355 9.29295 7.95251 9.4302C8.01147 9.56746 8.09718 9.6916 8.20463 9.79537L10.7843 12.375L8.20463 14.9546C8.09718 15.0584 8.01147 15.1825 7.95251 15.3198C7.89355 15.457 7.86252 15.6047 7.86122 15.754C7.85992 15.9034 7.88838 16.0516 7.94495 16.1898C8.00152 16.3281 8.08505 16.4537 8.19068 16.5593C8.29631 16.6649 8.42192 16.7485 8.56018 16.805C8.69843 16.8616 8.84657 16.8901 8.99595 16.8888C9.14533 16.8875 9.29295 16.8564 9.4302 16.7975C9.56746 16.7385 9.6916 16.6528 9.79537 16.5454L12.375 13.9657L14.9546 16.5454C15.1668 16.7503 15.451 16.8637 15.746 16.8611C16.0409 16.8586 16.3231 16.7403 16.5317 16.5317C16.7403 16.3231 16.8586 16.0409 16.8611 15.746C16.8637 15.451 16.7503 15.1668 16.5454 14.9546L13.9657 12.375L16.5454 9.79537Z" fill="#DF2C2C"/>
</svg>
