<svg width="28" height="25" viewBox="0 0 28 25" fill="none" xmlns="http://www.w3.org/2000/svg">
<path d="M20 14.5833H24.7656C24.7135 14.6484 24.6615 14.7054 24.6094 14.7542C24.5573 14.8031 24.5104 14.8437 24.4688 14.8763L24.4219 14.9414L14.6875 24.707C14.5 24.9023 14.2708 25 14 25C13.7292 25 13.5 24.9023 13.3125 24.707L3.5625 14.9089C3.51042 14.8872 3.40104 14.7786 3.23438 14.5833H9C9.22917 14.5833 9.4349 14.5101 9.61719 14.3636C9.79948 14.2171 9.91667 14.0299 9.96875 13.8021L11.0625 9.22852L14.0312 20.0846C14.0938 20.3016 14.2135 20.4807 14.3906 20.6217C14.5677 20.7628 14.7708 20.8333 15 20.8333C15.2188 20.8333 15.4167 20.7628 15.5938 20.6217C15.7708 20.4807 15.8906 20.3016 15.9531 20.0846L18.2344 12.1908L19.1094 14.0137C19.2969 14.3934 19.5938 14.5833 20 14.5833ZM28 7.61719C28 9.19054 27.4635 10.8181 26.3906 12.5H20.625L18.8906 8.90299C18.8073 8.71853 18.6745 8.57205 18.4922 8.46354C18.3099 8.35503 18.1198 8.31163 17.9219 8.33333C17.4531 8.38759 17.1615 8.63715 17.0469 9.08203L15.0312 16.0807L11.9688 4.91536C11.9062 4.69835 11.7839 4.51931 11.6016 4.37826C11.4193 4.2372 11.2135 4.16667 10.9844 4.16667C10.7552 4.16667 10.5521 4.23991 10.375 4.38639C10.1979 4.53288 10.0833 4.72005 10.0312 4.94792L8.21875 12.5H1.60938C0.536458 10.8181 0 9.19054 0 7.61719C0 5.23003 0.661458 3.36372 1.98438 2.01823C3.30729 0.672743 5.13542 0 7.46875 0C8.11458 0 8.77344 0.116645 9.44531 0.349935C10.1172 0.583225 10.7422 0.897895 11.3203 1.29395C11.8984 1.69 12.3958 2.06163 12.8125 2.40885C13.2292 2.75608 13.625 3.125 14 3.51562C14.375 3.125 14.7708 2.75608 15.1875 2.40885C15.6042 2.06163 16.1016 1.69 16.6797 1.29395C17.2578 0.897895 17.8828 0.583225 18.5547 0.349935C19.2266 0.116645 19.8854 0 20.5312 0C22.8646 0 24.6927 0.672743 26.0156 2.01823C27.3385 3.36372 28 5.23003 28 7.61719Z" fill="#57AB23"/>
</svg>
